<svg width="1080" height="126" viewBox="0 0 1080 126" fill="none" xmlns="http://www.w3.org/2000/svg">
<rect width="1080" height="126" fill="#3D405B"/>
<mask id="mask0" style="mask-type:alpha" maskUnits="userSpaceOnUse" x="0" y="0" width="1080" height="126">
<rect width="1080" height="126" fill="#3D405B"/>
</mask>
<g mask="url(#mask0)">
<path d="M756.469 16.8906C756.469 27.0469 754.734 34.5938 751.266 39.5312C747.797 44.4688 742.375 46.9375 735 46.9375C727.719 46.9375 722.328 44.5312 718.828 39.7188C715.328 34.875 713.516 27.6562 713.391 18.0625V6.48438C713.391 -3.54688 715.125 -11 718.594 -15.875C722.062 -20.75 727.5 -23.1875 734.906 -23.1875C742.25 -23.1875 747.656 -20.8281 751.125 -16.1094C754.594 -11.4219 756.375 -4.17188 756.469 5.64062V16.8906ZM747.797 5.03125C747.797 -2.3125 746.766 -7.65625 744.703 -11C742.641 -14.375 739.375 -16.0625 734.906 -16.0625C730.469 -16.0625 727.234 -14.3906 725.203 -11.0469C723.172 -7.70312 722.125 -2.5625 722.062 4.375V18.25C722.062 25.625 723.125 31.0781 725.25 34.6094C727.406 38.1094 730.656 39.8594 735 39.8594C739.281 39.8594 742.453 38.2031 744.516 34.8906C746.609 31.5781 747.703 26.3594 747.797 19.2344V5.03125Z" fill="#E07A5F"/>
<path d="M367.469 66.8906C367.469 77.0469 365.734 84.5938 362.266 89.5312C358.797 94.4688 353.375 96.9375 346 96.9375C338.719 96.9375 333.328 94.5312 329.828 89.7188C326.328 84.875 324.516 77.6562 324.391 68.0625V56.4844C324.391 46.4531 326.125 39 329.594 34.125C333.062 29.25 338.5 26.8125 345.906 26.8125C353.25 26.8125 358.656 29.1719 362.125 33.8906C365.594 38.5781 367.375 45.8281 367.469 55.6406V66.8906ZM358.797 55.0312C358.797 47.6875 357.766 42.3438 355.703 39C353.641 35.625 350.375 33.9375 345.906 33.9375C341.469 33.9375 338.234 35.6094 336.203 38.9531C334.172 42.2969 333.125 47.4375 333.062 54.375V68.25C333.062 75.625 334.125 81.0781 336.25 84.6094C338.406 88.1094 341.656 89.8594 346 89.8594C350.281 89.8594 353.453 88.2031 355.516 84.8906C357.609 81.5781 358.703 76.3594 358.797 69.2344V55.0312ZM445.188 66.8906C445.188 77.0469 443.453 84.5938 439.984 89.5312C436.516 94.4688 431.094 96.9375 423.719 96.9375C416.438 96.9375 411.047 94.5312 407.547 89.7188C404.047 84.875 402.234 77.6562 402.109 68.0625V56.4844C402.109 46.4531 403.844 39 407.312 34.125C410.781 29.25 416.219 26.8125 423.625 26.8125C430.969 26.8125 436.375 29.1719 439.844 33.8906C443.312 38.5781 445.094 45.8281 445.188 55.6406V66.8906ZM436.516 55.0312C436.516 47.6875 435.484 42.3438 433.422 39C431.359 35.625 428.094 33.9375 423.625 33.9375C419.188 33.9375 415.953 35.6094 413.922 38.9531C411.891 42.2969 410.844 47.4375 410.781 54.375V68.25C410.781 75.625 411.844 81.0781 413.969 84.6094C416.125 88.1094 419.375 89.8594 423.719 89.8594C428 89.8594 431.172 88.2031 433.234 84.8906C435.328 81.5781 436.422 76.3594 436.516 69.2344V55.0312ZM522.906 66.8906C522.906 77.0469 521.172 84.5938 517.703 89.5312C514.234 94.4688 508.812 96.9375 501.438 96.9375C494.156 96.9375 488.766 94.5312 485.266 89.7188C481.766 84.875 479.953 77.6562 479.828 68.0625V56.4844C479.828 46.4531 481.562 39 485.031 34.125C488.5 29.25 493.938 26.8125 501.344 26.8125C508.688 26.8125 514.094 29.1719 517.562 33.8906C521.031 38.5781 522.812 45.8281 522.906 55.6406V66.8906ZM514.234 55.0312C514.234 47.6875 513.203 42.3438 511.141 39C509.078 35.625 505.812 33.9375 501.344 33.9375C496.906 33.9375 493.672 35.6094 491.641 38.9531C489.609 42.2969 488.562 47.4375 488.5 54.375V68.25C488.5 75.625 489.562 81.0781 491.688 84.6094C493.844 88.1094 497.094 89.8594 501.438 89.8594C505.719 89.8594 508.891 88.2031 510.953 84.8906C513.047 81.5781 514.141 76.3594 514.234 69.2344V55.0312ZM600.625 66.8906C600.625 77.0469 598.891 84.5938 595.422 89.5312C591.953 94.4688 586.531 96.9375 579.156 96.9375C571.875 96.9375 566.484 94.5312 562.984 89.7188C559.484 84.875 557.672 77.6562 557.547 68.0625V56.4844C557.547 46.4531 559.281 39 562.75 34.125C566.219 29.25 571.656 26.8125 579.062 26.8125C586.406 26.8125 591.812 29.1719 595.281 33.8906C598.75 38.5781 600.531 45.8281 600.625 55.6406V66.8906ZM591.953 55.0312C591.953 47.6875 590.922 42.3438 588.859 39C586.797 35.625 583.531 33.9375 579.062 33.9375C574.625 33.9375 571.391 35.6094 569.359 38.9531C567.328 42.2969 566.281 47.4375 566.219 54.375V68.25C566.219 75.625 567.281 81.0781 569.406 84.6094C571.562 88.1094 574.812 89.8594 579.156 89.8594C583.438 89.8594 586.609 88.2031 588.672 84.8906C590.766 81.5781 591.859 76.3594 591.953 69.2344V55.0312ZM678.344 66.8906C678.344 77.0469 676.609 84.5938 673.141 89.5312C669.672 94.4688 664.25 96.9375 656.875 96.9375C649.594 96.9375 644.203 94.5312 640.703 89.7188C637.203 84.875 635.391 77.6562 635.266 68.0625V56.4844C635.266 46.4531 637 39 640.469 34.125C643.938 29.25 649.375 26.8125 656.781 26.8125C664.125 26.8125 669.531 29.1719 673 33.8906C676.469 38.5781 678.25 45.8281 678.344 55.6406V66.8906ZM669.672 55.0312C669.672 47.6875 668.641 42.3438 666.578 39C664.516 35.625 661.25 33.9375 656.781 33.9375C652.344 33.9375 649.109 35.6094 647.078 38.9531C645.047 42.2969 644 47.4375 643.938 54.375V68.25C643.938 75.625 645 81.0781 647.125 84.6094C649.281 88.1094 652.531 89.8594 656.875 89.8594C661.156 89.8594 664.328 88.2031 666.391 84.8906C668.484 81.5781 669.578 76.3594 669.672 69.2344V55.0312Z" fill="#E07A5F"/>
<path d="M742.172 152H733.453V94.2031L715.969 100.625V92.75L740.812 83.4219H742.172V152Z" fill="#E07A5F"/>
</g>
</svg>
