<svg id="Capa_1" enable-background="new 0 0 512 512" height="512" viewBox="0 0 512 512" width="512" xmlns="http://www.w3.org/2000/svg"><g><g><g><g><g><g><circle cx="256" cy="256" fill="#7584f2" r="256"/></g></g></g></g></g><path d="m511.024 278.506-90.697-90.697-197.558-65.265-107.291 96.156 105.561 105.561-102.018 67.452 119.713 119.713c5.706.381 11.464.574 17.266.574 133.801 0 243.627-102.649 255.024-233.494z" fill="#4855b7"/><g><path d="m392.978 391.714h-273.956v-200.361l136.978-105.557 136.978 105.557z" fill="#ffce00"/></g><g><path d="m256 391.714h136.978v-200.361l-136.978-105.557z" fill="#fdba12"/></g><g><path d="m396.522 218.701-140.522-108.286-140.522 108.286-23.805-30.892 164.327-126.631 164.327 126.631z" fill="#ff8870"/></g><g><path d="m256 110.415 140.522 108.286 23.805-30.892-164.327-126.631z" fill="#ff583e"/></g><g><g><path d="m152.398 226.154h70.371v97.164h-70.371z" fill="#fff"/></g><g><path d="m289.231 226.154h70.371v97.164h-70.371z" fill="#e9edf5"/></g></g></g></svg>